<svg xmlns="http://www.w3.org/2000/svg" viewBox="0 0 393.25 418.42"><defs><style>.nieve-1,.nieve-2{fill:none;stroke-miterlimit:10;stroke-width:17px;}.nieve-1{stroke:#c4e4e2;}.nieve-2{stroke:#bce1e2;}</style></defs><g id="Capa_2" data-name="Capa 2"><g id="Capa_2-2" data-name="Capa 2"><polyline class="nieve-1" points="156.73 27.34 198.56 49.27 236.49 27.34"/><line class="nieve-2" x1="7.91" y1="308.79" x2="389.2" y2="102.32"/><line class="nieve-2" x1="4.02" y1="102.32" x2="389.2" y2="308.79"/><line class="nieve-2" x1="196.61" y1="418.42" x2="196.61"/><polyline class="nieve-2" points="267.62 62.12 198.56 106.89 125.6 62.12"/><line class="nieve-2" x1="109.95" y1="159.11" x2="100.31" y2="74.91"/><polyline class="nieve-2" points="48.76 80.39 53.48 128.83 11.8 147.09"/><line class="nieve-2" x1="105.13" y1="159.11" x2="32.64" y2="188.2"/><polyline class="nieve-2" points="32.64 222 109.95 253.53 100.31 325.23"/><polyline class="nieve-2" points="11.8 263.11 60.07 280.55 53.48 325.23"/><polyline class="nieve-2" points="125.6 355.38 196.61 308.79 267.62 355.38"/><path class="nieve-2" d="M198.55,361.78,236.49,391Z"/><line class="nieve-2" x1="156.73" y1="391.01" x2="198.55" y2="361.78"/><polyline class="nieve-2" points="299.71 332.09 289.03 255.09 362.94 226.57"/><polyline class="nieve-2" points="380.45 267.68 345.61 285.42 345.61 325.23"/><line class="nieve-2" x1="293.67" y1="154.05" x2="366.83" y2="188.2"/><line class="nieve-2" x1="293.67" y1="159.11" x2="298.74" y2="74.91"/><polyline class="nieve-2" points="345.61 80.39 345.61 125.92 380.45 142.52"/><polyline class="nieve-2" points="109.95 253.53 68.88 275.77 32.64 295.4"/><line class="nieve-2" x1="53.48" y1="128.83" x2="25.32" y2="113.74"/><line class="nieve-2" x1="196.61" y1="106.89" x2="196.61" y2="3.15"/><line class="nieve-2" x1="196.61" y1="308.79" x2="196.61" y2="382.79"/><line class="nieve-2" x1="289.03" y1="255.09" x2="383.06" y2="305.49"/><line class="nieve-2" x1="380.45" y1="106.89" x2="340.07" y2="128.92"/></g></g></svg>