<svg xmlns="http://www.w3.org/2000/svg" xmlns:xlink="http://www.w3.org/1999/xlink" viewBox="0 0 570.96 342.72"><defs><style>.nubesrotas-1{fill:url(#Degradado_sin_nombre_201);}.nubesrotas-2{fill:url(#Degradado_sin_nombre_9);}</style><linearGradient id="Degradado_sin_nombre_201" x1="191.83" y1="-55.41" x2="445.5" y2="412.24" gradientUnits="userSpaceOnUse"><stop offset="0.27" stop-color="#fff9c5"/><stop offset="1" stop-color="#1d1d1b"/></linearGradient><linearGradient id="Degradado_sin_nombre_9" x1="119.83" y1="-6.45" x2="373.5" y2="461.2" gradientUnits="userSpaceOnUse"><stop offset="0.27" stop-color="#fff9c5"/><stop offset="1" stop-color="#88bce7"/></linearGradient></defs><g id="Capa_2" data-name="Capa 2"><g id="Capa_7" data-name="Capa 7"><path class="nubesrotas-1" d="M510.66,91C499.83,39.31,445.85,0,380.88,0a154.36,154.36,0,0,0-48.6,7.74A154.36,154.36,0,0,0,283.68,0c-60.56,0-111.56,34.16-127,80.68C107.17,96.52,72,136.62,72,183.6c0,60.84,59,110.16,131.76,110.16A151.42,151.42,0,0,0,269.64,279a151.42,151.42,0,0,0,65.88,14.74,153.71,153.71,0,0,0,51.84-8.86,153.71,153.71,0,0,0,51.84,8.86C512,293.76,571,244.44,571,183.6,571,144.78,546.94,110.66,510.66,91Z"/><path class="nubesrotas-2" d="M438.66,140c-10.83-51.73-64.81-91-129.78-91a154.36,154.36,0,0,0-48.6,7.74A154.36,154.36,0,0,0,211.68,49c-60.56,0-111.56,34.16-127,80.68C35.17,145.48,0,185.58,0,232.56,0,293.4,59,342.72,131.76,342.72A151.42,151.42,0,0,0,197.64,328a151.42,151.42,0,0,0,65.88,14.74,153.71,153.71,0,0,0,51.84-8.86,153.71,153.71,0,0,0,51.84,8.86C440,342.72,499,293.4,499,232.56,499,193.74,474.94,159.62,438.66,140Z"/></g></g></svg>