<svg class='nublado' xmlns="http://www.w3.org/2000/svg" xmlns:xlink="http://www.w3.org/1999/xlink" viewBox="0 0 522.12 284.2"><defs><style>.nublado-1{fill:url(#Degradado_sin_nombre_9);}.nublado-2{opacity:0.5;}.nublado-3{fill:#929890;opacity:0.11;}</style><linearGradient id="Degradado_sin_nombre_9" x1="122.97" y1="-50.85" x2="357.76" y2="381.98" gradientUnits="userSpaceOnUse"><stop offset="0.27" stop-color="#fff9c5"/><stop offset="1" stop-color="#88bce7"/></linearGradient></defs><g id="Capa_2" data-name="Capa 2"><g id="Capa_3" data-name="Capa 3"><path class="nublado-1" d="M493.47,215.13A93.38,93.38,0,0,0,499,183.6c0-38.82-24-72.94-60.3-92.56C427.83,39.31,373.85,0,308.88,0a154.36,154.36,0,0,0-48.6,7.74A154.36,154.36,0,0,0,211.68,0c-60.56,0-111.56,34.16-127,80.68C35.17,96.52,0,136.62,0,183.6a93.38,93.38,0,0,0,5.49,31.53Z"/><g class="nublado-2"><path class="nublado-3" d="M242,240.85q46.5.09,93,0c20.44,0,40.87.08,61.31,0,10.59,0,21.19-.1,31.78,0,.72,0-.88-1.08-.74-1-.73-.53-1.93-1.67-2.88-1.78a73.91,73.91,0,0,0-8.29-.13c-6.75,0-13.51-.15-20.26-.06-21.38.29-42.78.07-64.17.07l-32.51,0c-9.55,0-19.09-.13-28.63-.11-10.51,0-21,.07-31.52-.13-.65,0,.53,1,.51,1C240.08,239.25,241.35,240.85,242,240.85Z"/><path class="nublado-3" d="M242.42,243.88c31-.24,62.08-.07,93.12-.07h93.24c.5,0-1-2.18-1.54-2.18H334c-31,0-62-.24-93,.08C240.48,241.72,241.92,243.88,242.42,243.88Z"/><path class="nublado-3" d="M240.39,238.92c31,.25,62,.13,93.06.13,20.43,0,40.87.1,61.31,0,10.61-.06,21.22.08,31.83,0a1.66,1.66,0,0,0-.73-.8c-.75-.57-1.5-1.13-2.26-1.67-1-.68-1.91-1.36-2.87-2a13.46,13.46,0,0,0-2.06-1.3c-2.81-.51-5.8-.27-8.65-.3-6.75-.08-13.51-.29-20.25-.09-21.38.61-42.82.13-64.21.14q-16.26,0-32.53.05c-5.56,0-11.15.18-16.72,0-4-.14-7.88-.26-11.84-.23-7.69.05-15.35.21-23-.11l-8.37-.38a1.53,1.53,0,0,0,.62.86c.93.91,1.88,1.79,2.85,2.65s1.94,1.73,2.94,2.56A1.53,1.53,0,0,0,240.39,238.92Z"/><path class="nublado-3" d="M240.56,240.44c31,.18,62,.1,93,.09s62.08.08,93.12,0a1.15,1.15,0,0,0-.53-.72c-.57-.52-1.15-1-1.75-1.5s-1.48-1.23-2.24-1.82a8.79,8.79,0,0,0-1.63-1.16,28.37,28.37,0,0,0-5.45-.26c-6.8,0-13.62-.3-20.42-.2-3.94.06-7.87.26-11.81.32-5.33.09-10.68,0-16-.06q-17.79,0-35.59,0-16.37,0-32.73,0c-5.67,0-11.33.06-17,0-5,0-10-.28-15-.25-7.69.05-15.37.23-23.06-.06-2.75-.1-5.5-.23-8.24-.34a1.06,1.06,0,0,0,.39.77c.67.81,1.36,1.61,2.07,2.38C238.09,238.12,239.68,240.43,240.56,240.44Z"/><path class="nublado-3" d="M242.5,240.47q93.08-.1,186.16,0c.58,0-.49-.82-.41-.76-.44-.35-1.32-1.11-1.93-1.11-9.66-.09-19.32-.13-29,0-21.39.16-42.78,0-64.17,0-30.87,0-61.74.16-92.6-.08-.54,0,.28.76.27.76C241.16,239.59,242,240.47,242.5,240.47Z"/><path class="nublado-3" d="M240.29,238.45c31,.31,62,.14,93.06.14s62.08,0,93.12,0a1,1,0,0,0-.58-.64c-.6-.44-1.22-.86-1.84-1.27-.77-.51-1.55-1-2.34-1.51a8.76,8.76,0,0,0-1.69-.94,36.83,36.83,0,0,0-5.56-.21c-6.82,0-13.66-.26-20.48-.17-3.9.05-7.8.23-11.71.29-5.33.08-10.69,0-16-.06q-17.81,0-35.61,0-16.36,0-32.72,0c-5.66,0-11.32.06-17,0-5,0-10.06-.26-15.1-.23-7.69.05-15.37.2-23.06-.08-2.8-.09-5.6-.21-8.4-.32a1,1,0,0,0,.47.69c.75.69,1.52,1.36,2.3,2C237.76,236.69,239.32,238.44,240.29,238.45Z"/><path class="nublado-3" d="M241,241.63c31,.15,62,.08,93,.08s62.1.18,93.14,0a1.44,1.44,0,0,0-.58-.82c-.89-.86-1.79-1.7-2.71-2.52s-2.39-2.63-3.67-2.93c-2.59-.59-5.63-.23-8.25-.26-6.74-.07-13.48-.29-20.21-.1-21.4.6-42.84.14-64.25.14q-16.27,0-32.54,0c-5.57,0-11.18.21-16.74,0-3.94-.13-7.83-.26-11.77-.24-7.69.05-15.37.24-23.05-.06l-8.23-.36a1.36,1.36,0,0,0,.44.88c.73,1,1.48,1.89,2.26,2.81C238.27,238.76,240.12,241.63,241,241.63Z"/><path class="nublado-3" d="M241.73,239.47c31-.33,61.92-.09,92.88-.09s62.14-.06,93.21,0c.51,0-.33-.68-.29-.65a3.1,3.1,0,0,0-1.54-.8c-31.05-.19-62.1,0-93.15,0-20.38,0-40.77,0-61.16,0-10.45,0-20.89,0-31.34.14C239.88,238,241.26,239.47,241.73,239.47Z"/><path class="nublado-3" d="M240.77,240.1c31,.19,62,.1,93.06.1,20.44,0,40.88.09,61.32,0,10.61-.05,21.23.12,31.84,0a1.91,1.91,0,0,0-.76-.91q-1.68-1.44-3.4-2.82c-1.09-.89-3-3-4.51-3.3-2.66-.55-5.65-.23-8.34-.27-6.75-.08-13.5-.3-20.24-.1-21.39.64-42.83.15-64.22.16q-16.27,0-32.54.05c-5.57,0-11.16.19-16.72,0-3.95-.15-7.86-.27-11.82-.24-7.68,0-15.34.22-23-.11-2.78-.12-5.56-.26-8.33-.39a1.84,1.84,0,0,0,.64,1c1,1.07,2,2.12,3,3.15s2,2.06,3.07,3.06A1.87,1.87,0,0,0,240.77,240.1Z"/><path class="nublado-3" d="M240.61,239.51q46.47.06,92.94.05c20.44,0,40.88.11,61.32,0,10.57-.07,21.16-.08,31.73,0,.76,0-1-1.16-.83-1-.82-.59-2.13-1.83-3.17-2a67,67,0,0,0-8.26-.15c-6.74-.05-13.49-.19-20.24-.07-21.39.37-42.8.08-64.19.09l-32.53,0c-9.53,0-19.06-.17-28.59-.14-10.48,0-20.94,0-31.42-.2-.68,0,.63,1.14.6,1.1.55.54,1.1,1.06,1.68,1.57A3.33,3.33,0,0,0,240.61,239.51Z"/><path class="nublado-3" d="M242.4,239.39c31-.48,62-.12,93-.12h93.24c.47,0-.19-.62-.18-.61a2.22,2.22,0,0,0-1.27-.71H272.65c-10.52,0-21-.07-31.54.19C240.65,238.15,242,239.4,242.4,239.39Z"/><path class="nublado-3" d="M240.46,240.73c31,.25,62,.12,93.07.12,20.44,0,40.88.09,61.31,0,10.62-.05,21.23.09,31.85,0a1.53,1.53,0,0,0-.63-.87c-.94-.92-1.91-1.82-2.89-2.7s-2.57-2.87-3.9-3.14c-2.64-.55-5.64-.23-8.31-.26-6.74-.08-13.49-.28-20.23-.1-21.39.59-42.83.14-64.23.14q-16.28,0-32.54.05c-5.57,0-11.16.19-16.73,0-3.94-.13-7.85-.26-11.79-.23-7.69.05-15.35.22-23-.08l-8.31-.36a1.53,1.53,0,0,0,.5.93c.8,1,1.62,2,2.47,3s1.68,2,2.55,2.9A1.53,1.53,0,0,0,240.46,240.73Z"/></g><g class="nublado-2"><path class="nublado-3" d="M38.28,281.17q46.5.09,93,0c20.44,0,40.87.08,61.31,0,10.59-.05,21.19-.1,31.78,0,.72,0-.88-1.08-.74-1-.73-.53-1.93-1.67-2.88-1.78a71.6,71.6,0,0,0-8.29-.13c-6.75,0-13.51-.15-20.26-.06-21.38.29-42.78.07-64.17.07l-32.51,0c-9.55,0-19.09-.13-28.63-.11-10.51,0-21,.06-31.52-.13-.65,0,.53,1,.51,1C36.32,279.57,37.59,281.17,38.28,281.17Z"/><path class="nublado-3" d="M38.66,284.2c31-.25,62.08-.07,93.12-.07H225c.5,0-1-2.18-1.54-2.18H130.24c-31,0-62-.24-93,.08C36.72,282,38.16,284.2,38.66,284.2Z"/><path class="nublado-3" d="M36.63,279.24c31,.25,62,.13,93.06.13,20.43,0,40.87.1,61.31,0,10.61-.06,21.22.08,31.83,0a1.66,1.66,0,0,0-.73-.8c-.75-.57-1.5-1.13-2.26-1.67-1-.68-1.91-1.36-2.87-2a13.46,13.46,0,0,0-2.06-1.3c-2.81-.51-5.8-.27-8.65-.3-6.75-.08-13.51-.29-20.25-.09-21.38.61-42.82.13-64.21.14q-16.26,0-32.53.05c-5.56,0-11.15.18-16.72,0-4-.14-7.88-.26-11.84-.23-7.69.05-15.35.21-23-.11l-8.37-.38a1.53,1.53,0,0,0,.62.86c.93.91,1.88,1.79,2.85,2.65s1.94,1.73,2.94,2.56A1.53,1.53,0,0,0,36.63,279.24Z"/><path class="nublado-3" d="M36.8,280.76c62,.35,124.08.23,186.12.09a1.15,1.15,0,0,0-.53-.72c-.57-.52-1.15-1-1.75-1.5s-1.48-1.23-2.24-1.83a9.23,9.23,0,0,0-1.63-1.15,28.37,28.37,0,0,0-5.45-.26c-6.8,0-13.62-.3-20.42-.2-3.94.06-7.87.26-11.81.32-5.33.09-10.68,0-16-.06q-17.81,0-35.6,0-16.36,0-32.73,0c-5.67,0-11.33.06-17,0-5,0-10-.28-15-.25-7.69,0-15.37.23-23.06-.06-2.75-.1-5.5-.23-8.24-.34a1.06,1.06,0,0,0,.39.77c.67.81,1.36,1.61,2.07,2.38C34.33,278.44,35.92,280.75,36.8,280.76Z"/><path class="nublado-3" d="M38.74,280.79q93.07-.12,186.16,0c.58,0-.49-.82-.41-.76-.44-.35-1.32-1.11-1.93-1.11-9.66-.09-19.32-.13-29-.05-21.39.16-42.78,0-64.17,0-30.87,0-61.74.15-92.6-.08-.54,0,.28.76.27.76C37.4,279.91,38.22,280.79,38.74,280.79Z"/><path class="nublado-3" d="M36.53,278.77c31,.3,62,.14,93.06.14s62.08,0,93.12,0a1,1,0,0,0-.58-.64c-.6-.44-1.22-.86-1.84-1.27s-1.55-1-2.34-1.51a8.76,8.76,0,0,0-1.69-.94,35.57,35.57,0,0,0-5.56-.21c-6.82,0-13.66-.26-20.48-.17-3.9.05-7.8.23-11.71.29-5.33.08-10.69,0-16-.06l-35.61,0q-16.36,0-32.72,0c-5.66,0-11.32.06-17,0-5,0-10.06-.26-15.1-.23-7.69.05-15.37.2-23.06-.08-2.8-.09-5.6-.21-8.4-.32a1,1,0,0,0,.47.69c.75.69,1.52,1.36,2.3,2C34,277,35.56,278.76,36.53,278.77Z"/><path class="nublado-3" d="M37.27,282c31,.14,62,.08,93,.08s62.1.16,93.14,0a1.44,1.44,0,0,0-.58-.82c-.89-.86-1.79-1.7-2.71-2.52s-2.39-2.63-3.67-2.93c-2.59-.59-5.63-.23-8.25-.26-6.74-.07-13.48-.29-20.21-.1-21.4.6-42.84.14-64.25.14q-16.27,0-32.54.05c-5.57,0-11.18.21-16.74,0-3.94-.13-7.83-.26-11.77-.24-7.69,0-15.37.24-23-.06l-8.23-.36a1.36,1.36,0,0,0,.44.88c.73,1,1.48,1.89,2.26,2.81C34.51,279.08,36.36,282,37.27,282Z"/><path class="nublado-3" d="M38,279.79c31-.33,61.92-.09,92.88-.09s62.14-.06,93.21,0c.51,0-.33-.68-.29-.65a3.1,3.1,0,0,0-1.54-.8c-31-.2-62.1,0-93.15,0-20.38,0-40.77-.05-61.16,0-10.45,0-20.89,0-31.34.14C36.12,278.35,37.5,279.79,38,279.79Z"/><path class="nublado-3" d="M37,280.42c31,.18,62,.1,93.06.1,20.44,0,40.88.09,61.32,0,10.61-.05,21.23.12,31.85,0a2,2,0,0,0-.77-.91q-1.68-1.44-3.4-2.82c-1.09-.89-3-3-4.51-3.3-2.66-.55-5.65-.23-8.34-.27-6.75-.08-13.5-.3-20.24-.1-21.39.64-42.83.15-64.22.16q-16.28,0-32.54.05c-5.57,0-11.16.19-16.72,0-4-.15-7.86-.27-11.82-.24-7.68.05-15.34.22-23-.11-2.78-.12-5.56-.26-8.33-.39a1.84,1.84,0,0,0,.64,1c1,1.07,2,2.12,3,3.15s2,2.06,3.07,3.06A1.87,1.87,0,0,0,37,280.42Z"/><path class="nublado-3" d="M36.85,279.83q46.47,0,92.94.05c20.44,0,40.88.11,61.32,0,10.57-.07,21.16-.08,31.73,0,.76,0-1-1.16-.83-1-.82-.59-2.13-1.83-3.17-2a67,67,0,0,0-8.26-.15c-6.74-.05-13.49-.19-20.24-.07-21.39.37-42.8.08-64.19.09l-32.53,0c-9.53,0-19.06-.17-28.59-.14-10.48,0-20.94.05-31.42-.2-.68,0,.63,1.14.6,1.1.55.54,1.1,1.06,1.68,1.57A3.33,3.33,0,0,0,36.85,279.83Z"/><path class="nublado-3" d="M38.64,279.71c31-.48,62-.12,93-.12h93.24c.47,0-.19-.62-.18-.61a2.22,2.22,0,0,0-1.27-.71H68.89c-10.52,0-21-.07-31.54.19C36.89,278.47,38.19,279.72,38.64,279.71Z"/><path class="nublado-3" d="M36.7,281.05c31,.24,62.05.12,93.07.12s62.11.22,93.16,0a1.53,1.53,0,0,0-.63-.87c-.94-.92-1.91-1.82-2.89-2.7s-2.57-2.87-3.9-3.14c-2.64-.56-5.64-.23-8.31-.26-6.74-.08-13.49-.28-20.23-.1-21.39.59-42.83.13-64.23.14q-16.27,0-32.54,0c-5.57,0-11.16.19-16.73,0-3.94-.13-7.85-.26-11.79-.23-7.69.05-15.35.22-23-.08l-8.31-.36a1.53,1.53,0,0,0,.5.93c.8,1,1.62,2,2.47,3s1.68,2,2.55,2.9A1.53,1.53,0,0,0,36.7,281.05Z"/></g><g class="nublado-2"><path class="nublado-3" d="M304,281.17q46.5.07,93,0c20.44,0,40.87.08,61.31,0,10.59-.05,21.19-.1,31.78,0,.72,0-.88-1.08-.74-1-.73-.53-1.93-1.67-2.88-1.78a71.6,71.6,0,0,0-8.29-.13c-6.75,0-13.51-.15-20.26-.06-21.38.29-42.78.07-64.17.07l-32.51,0c-9.55,0-19.09-.13-28.63-.11-10.51,0-21,.06-31.52-.13-.65,0,.53,1,.51,1C302,279.57,303.27,281.17,304,281.17Z"/><path class="nublado-3" d="M304.34,284.2c31-.25,62.08-.07,93.12-.07H490.7c.5,0-1-2.18-1.54-2.18H395.92c-31,0-62-.24-93,.08C302.4,282,303.84,284.2,304.34,284.2Z"/><path class="nublado-3" d="M302.31,279.24c31,.24,62,.13,93.06.13s62.09.2,93.14,0a1.66,1.66,0,0,0-.73-.8c-.75-.57-1.5-1.13-2.26-1.67-.95-.68-1.91-1.36-2.87-2a13.46,13.46,0,0,0-2.06-1.3c-2.81-.51-5.8-.27-8.65-.3-6.75-.08-13.51-.29-20.25-.09-21.38.61-42.82.13-64.21.14q-16.26,0-32.53.05c-5.56,0-11.15.18-16.72,0-4-.14-7.88-.26-11.84-.23-7.69.05-15.35.21-23-.11l-8.37-.38a1.53,1.53,0,0,0,.62.86c.93.91,1.88,1.79,2.85,2.65s1.94,1.73,2.94,2.56A1.53,1.53,0,0,0,302.31,279.24Z"/><path class="nublado-3" d="M302.48,280.76c31,.18,62,.1,93,.09s62.08.07,93.12,0a1.15,1.15,0,0,0-.53-.72c-.57-.52-1.15-1-1.75-1.5s-1.48-1.23-2.24-1.83a9.23,9.23,0,0,0-1.63-1.15,28.37,28.37,0,0,0-5.45-.26c-6.8,0-13.62-.3-20.42-.2-3.94.06-7.87.26-11.81.32-5.33.09-10.68,0-16-.06q-17.79,0-35.59,0-16.37,0-32.73,0c-5.67,0-11.33.06-17,0-5,0-10-.28-15-.25-7.69,0-15.37.23-23.06-.06-2.75-.1-5.5-.23-8.24-.34a1.06,1.06,0,0,0,.39.77c.67.81,1.36,1.61,2.07,2.38C300,278.44,301.6,280.75,302.48,280.76Z"/><path class="nublado-3" d="M304.42,280.79q93.07-.12,186.16,0c.58,0-.49-.82-.41-.76-.44-.35-1.32-1.11-1.93-1.11-9.66-.09-19.32-.13-29-.05-21.39.16-42.78,0-64.17,0-30.87,0-61.74.15-92.6-.08-.54,0,.28.76.27.76C303.08,279.91,303.9,280.79,304.42,280.79Z"/><path class="nublado-3" d="M302.21,278.77c31,.3,62,.14,93.06.14s62.08,0,93.12,0a1,1,0,0,0-.58-.64c-.6-.44-1.22-.86-1.84-1.27-.77-.51-1.55-1-2.34-1.51a8.76,8.76,0,0,0-1.69-.94,35.57,35.57,0,0,0-5.56-.21c-6.82,0-13.66-.26-20.48-.17-3.9.05-7.81.23-11.71.29-5.33.08-10.69,0-16-.06l-35.61,0q-16.37,0-32.72,0c-5.66,0-11.32.06-17,0-5,0-10.06-.26-15.1-.23-7.69.05-15.37.2-23.06-.08-2.8-.09-5.6-.21-8.4-.32a1,1,0,0,0,.47.69c.75.69,1.52,1.36,2.3,2C299.68,277,301.24,278.76,302.21,278.77Z"/><path class="nublado-3" d="M303,282c31,.14,62,.08,93,.08s62.1.17,93.14,0a1.44,1.44,0,0,0-.58-.82c-.89-.86-1.79-1.7-2.71-2.52s-2.39-2.63-3.67-2.93c-2.59-.59-5.63-.23-8.25-.26-6.74-.07-13.48-.29-20.21-.1-21.4.6-42.84.14-64.25.14q-16.27,0-32.54.05c-5.57,0-11.18.21-16.74,0-3.94-.13-7.83-.26-11.77-.24-7.69,0-15.37.24-23-.06l-8.23-.36a1.36,1.36,0,0,0,.44.88c.73,1,1.48,1.89,2.26,2.81C300.19,279.08,302,282,303,282Z"/><path class="nublado-3" d="M303.65,279.79c31-.33,61.92-.09,92.88-.09s62.14-.06,93.21,0c.51,0-.33-.68-.29-.65a3.1,3.1,0,0,0-1.54-.8c-31.05-.19-62.1,0-93.15,0-20.38,0-40.77-.05-61.16,0-10.45,0-20.89,0-31.34.14C301.8,278.35,303.18,279.79,303.65,279.79Z"/><path class="nublado-3" d="M302.69,280.42c31,.17,62,.1,93.06.1,20.44,0,40.88.09,61.32,0,10.61-.05,21.23.12,31.85,0a2,2,0,0,0-.77-.91q-1.68-1.44-3.4-2.82c-1.09-.89-3-3-4.51-3.3-2.66-.55-5.65-.23-8.34-.27-6.75-.08-13.5-.3-20.24-.1-21.39.64-42.83.15-64.22.16q-16.28,0-32.54.05c-5.57,0-11.16.19-16.72,0-3.95-.15-7.86-.27-11.82-.24-7.68.05-15.34.22-23-.11-2.78-.12-5.56-.26-8.33-.39a1.84,1.84,0,0,0,.64,1c1,1.07,2,2.12,3,3.15s2,2.06,3.07,3.06A1.87,1.87,0,0,0,302.69,280.42Z"/><path class="nublado-3" d="M302.53,279.83q46.47,0,92.94.05c20.44,0,40.88.11,61.32,0,10.57-.07,21.16-.08,31.73,0,.76,0-1-1.16-.83-1-.82-.59-2.13-1.83-3.17-2a67,67,0,0,0-8.26-.15c-6.74-.05-13.49-.19-20.24-.07-21.39.37-42.8.08-64.19.09l-32.53,0c-9.53,0-19.06-.17-28.59-.14-10.48,0-20.94.05-31.42-.2-.68,0,.63,1.14.6,1.1.55.54,1.1,1.06,1.68,1.57A3.33,3.33,0,0,0,302.53,279.83Z"/><path class="nublado-3" d="M304.32,279.71c31-.48,62-.12,93-.12h93.24c.47,0-.19-.62-.18-.61a2.22,2.22,0,0,0-1.27-.71H334.57c-10.52,0-21-.07-31.54.19C302.57,278.47,303.87,279.72,304.32,279.71Z"/><path class="nublado-3" d="M302.38,281.05c31,.24,62.05.12,93.07.12,20.44,0,40.88.09,61.31,0,10.62,0,21.23.09,31.85,0a1.53,1.53,0,0,0-.63-.87c-.94-.92-1.91-1.82-2.89-2.7s-2.57-2.87-3.9-3.14c-2.64-.55-5.63-.23-8.31-.26-6.74-.08-13.49-.28-20.23-.1-21.39.59-42.83.14-64.23.14q-16.28,0-32.54,0c-5.57,0-11.16.19-16.73,0-3.94-.13-7.85-.26-11.79-.23-7.69.05-15.35.22-23-.08l-8.31-.36a1.53,1.53,0,0,0,.5.93c.8,1,1.62,2,2.47,3s1.68,2,2.55,2.9A1.53,1.53,0,0,0,302.38,281.05Z"/></g><g class="nublado-2"><path class="nublado-3" d="M38.28,240.85q46.5.08,93,0c20.44,0,40.87.08,61.31,0,10.59,0,21.19-.1,31.78,0,.72,0-.88-1.08-.74-1-.73-.53-1.93-1.67-2.88-1.78a71.6,71.6,0,0,0-8.29-.13c-6.75,0-13.51-.15-20.26-.06-21.38.29-42.78.07-64.17.07l-32.51,0c-9.55,0-19.09-.13-28.63-.11-10.51,0-21,.07-31.52-.13-.65,0,.53,1,.51,1C36.32,239.25,37.59,240.85,38.28,240.85Z"/><path class="nublado-3" d="M38.66,243.88c31-.25,62.08-.07,93.12-.07H225c.5,0-1-2.18-1.54-2.18H130.24c-31,0-62-.24-93,.08C36.72,241.72,38.16,243.88,38.66,243.88Z"/><path class="nublado-3" d="M36.63,238.92c31,.25,62,.13,93.06.13,20.43,0,40.87.1,61.31,0,10.61-.06,21.22.08,31.83,0a1.66,1.66,0,0,0-.73-.8c-.75-.57-1.5-1.13-2.26-1.67-1-.68-1.91-1.36-2.87-2a13.46,13.46,0,0,0-2.06-1.3c-2.81-.51-5.8-.27-8.65-.3-6.75-.08-13.51-.29-20.25-.09-21.38.61-42.82.13-64.21.14q-16.26,0-32.53.05c-5.56,0-11.15.18-16.72,0-4-.14-7.88-.26-11.84-.23-7.69.05-15.35.21-23-.11l-8.37-.38a1.53,1.53,0,0,0,.62.86c.93.91,1.88,1.79,2.85,2.65s1.94,1.73,2.94,2.56A1.53,1.53,0,0,0,36.63,238.92Z"/><path class="nublado-3" d="M36.8,240.44c31,.18,62,.1,93,.09s62.08.07,93.12,0a1.15,1.15,0,0,0-.53-.72c-.57-.52-1.15-1-1.75-1.5s-1.48-1.23-2.24-1.82a8.79,8.79,0,0,0-1.63-1.16,28.37,28.37,0,0,0-5.45-.26c-6.8,0-13.62-.3-20.42-.2-3.94.06-7.87.26-11.81.32-5.33.09-10.68,0-16-.06q-17.81,0-35.6,0-16.36,0-32.73,0c-5.67,0-11.33.06-17,0-5,0-10-.28-15-.25-7.69.05-15.37.23-23.06-.06-2.75-.1-5.5-.23-8.24-.34a1.06,1.06,0,0,0,.39.77c.67.81,1.36,1.61,2.07,2.38C34.33,238.12,35.92,240.43,36.8,240.44Z"/><path class="nublado-3" d="M38.74,240.47q93.07-.12,186.16,0c.58,0-.49-.82-.41-.76-.44-.35-1.32-1.11-1.93-1.11-9.66-.09-19.32-.13-29,0-21.39.16-42.78,0-64.17,0-30.87,0-61.74.16-92.6-.08-.54,0,.28.76.27.76C37.4,239.59,38.22,240.47,38.74,240.47Z"/><path class="nublado-3" d="M36.53,238.45c31,.3,62,.14,93.06.14s62.08,0,93.12,0a1,1,0,0,0-.58-.64c-.6-.44-1.22-.86-1.84-1.27s-1.55-1-2.34-1.51a8.76,8.76,0,0,0-1.69-.94,36.83,36.83,0,0,0-5.56-.21c-6.82,0-13.66-.26-20.48-.17-3.9.05-7.8.23-11.71.29-5.33.08-10.69,0-16-.06q-17.81,0-35.61,0-16.36,0-32.72,0c-5.66,0-11.32.06-17,0-5,0-10.06-.26-15.1-.23-7.69.05-15.37.2-23.06-.08-2.8-.09-5.6-.21-8.4-.32a1,1,0,0,0,.47.69c.75.69,1.52,1.36,2.3,2C34,236.69,35.56,238.44,36.53,238.45Z"/><path class="nublado-3" d="M37.27,241.63c31,.14,62,.08,93,.08s62.1.17,93.14,0a1.44,1.44,0,0,0-.58-.82c-.89-.86-1.79-1.7-2.71-2.52s-2.39-2.63-3.67-2.93c-2.59-.59-5.63-.23-8.25-.26-6.74-.07-13.48-.29-20.21-.1-21.4.6-42.84.14-64.25.14q-16.27,0-32.54,0c-5.57,0-11.18.21-16.74,0-3.94-.13-7.83-.26-11.77-.24-7.69.05-15.37.24-23-.06l-8.23-.36a1.36,1.36,0,0,0,.44.88c.73,1,1.48,1.89,2.26,2.81C34.51,238.76,36.36,241.63,37.27,241.63Z"/><path class="nublado-3" d="M38,239.47c31-.33,61.92-.09,92.88-.09s62.14-.06,93.21,0c.51,0-.33-.68-.29-.65a3.1,3.1,0,0,0-1.54-.8c-31-.2-62.1,0-93.15,0-20.38,0-40.77,0-61.16,0-10.45,0-20.89,0-31.34.14C36.12,238,37.5,239.47,38,239.47Z"/><path class="nublado-3" d="M37,240.1c31,.18,62,.1,93.06.1,20.44,0,40.88.09,61.32,0,10.61-.05,21.23.12,31.85,0a2,2,0,0,0-.77-.91q-1.68-1.44-3.4-2.82c-1.09-.89-3-3-4.51-3.3-2.66-.55-5.65-.23-8.34-.27-6.75-.08-13.5-.3-20.24-.1-21.39.64-42.83.15-64.22.16q-16.28,0-32.54.05c-5.57,0-11.16.19-16.72,0-4-.15-7.86-.27-11.82-.24-7.68,0-15.34.22-23-.11-2.78-.12-5.56-.26-8.33-.39a1.84,1.84,0,0,0,.64,1c1,1.07,2,2.12,3,3.15s2,2.06,3.07,3.06A1.87,1.87,0,0,0,37,240.1Z"/><path class="nublado-3" d="M36.85,239.51q46.47,0,92.94.05c20.44,0,40.88.11,61.32,0,10.57-.07,21.16-.08,31.73,0,.76,0-1-1.16-.83-1-.82-.59-2.13-1.83-3.17-2a67,67,0,0,0-8.26-.15c-6.74-.05-13.49-.19-20.24-.07-21.39.37-42.8.08-64.19.09l-32.53,0c-9.53,0-19.06-.17-28.59-.14-10.48,0-20.94,0-31.42-.2-.68,0,.63,1.14.6,1.1.55.54,1.1,1.06,1.68,1.57A3.33,3.33,0,0,0,36.85,239.51Z"/><path class="nublado-3" d="M38.64,239.39c31-.49,62-.12,93-.12s62.16,0,93.24,0c.47,0-.19-.62-.18-.61a2.22,2.22,0,0,0-1.27-.71H68.89c-10.52,0-21-.07-31.54.19C36.89,238.15,38.19,239.4,38.64,239.39Z"/><path class="nublado-3" d="M36.7,240.73c31,.24,62.05.12,93.07.12,20.44,0,40.88.09,61.31,0,10.62-.05,21.23.09,31.85,0a1.53,1.53,0,0,0-.63-.87c-.94-.92-1.91-1.82-2.89-2.7s-2.57-2.87-3.9-3.14c-2.64-.55-5.64-.23-8.31-.26-6.74-.08-13.49-.28-20.23-.1-21.39.59-42.83.14-64.23.14q-16.27,0-32.54.05c-5.57,0-11.16.19-16.73,0-3.94-.13-7.85-.26-11.79-.23-7.69.05-15.35.22-23-.08l-8.31-.36a1.53,1.53,0,0,0,.5.93c.8,1,1.62,2,2.47,3s1.68,2,2.55,2.9A1.53,1.53,0,0,0,36.7,240.73Z"/></g><g class="nublado-2"><path class="nublado-3" d="M120.36,261q46.5.08,93,0c20.44,0,40.87.08,61.31,0,10.59-.05,21.19-.1,31.78,0,.72,0-.88-1.08-.74-1-.73-.53-1.93-1.67-2.88-1.78a71.6,71.6,0,0,0-8.29-.13c-6.75,0-13.51-.15-20.26-.06-21.38.29-42.78.07-64.17.07l-32.51,0c-9.55,0-19.09-.13-28.63-.11-10.51,0-21,.07-31.52-.13-.65,0,.53,1,.51,1C118.4,259.41,119.67,261,120.36,261Z"/><path class="nublado-3" d="M120.74,264c31-.25,62.08-.07,93.12-.07H307.1c.5,0-1-2.18-1.54-2.18q-46.62,0-93.24,0c-31,0-62-.24-93,.08C118.8,261.88,120.24,264,120.74,264Z"/><path class="nublado-3" d="M118.71,259.08c31,.24,62,.13,93.06.13s62.09.2,93.14,0a1.66,1.66,0,0,0-.73-.8c-.75-.57-1.5-1.13-2.26-1.67-.95-.68-1.91-1.36-2.87-2a13.46,13.46,0,0,0-2.06-1.3c-2.81-.51-5.81-.27-8.65-.3-6.75-.08-13.51-.29-20.25-.09-21.38.61-42.82.13-64.21.14q-16.26,0-32.53.05c-5.56,0-11.15.18-16.72,0-4-.14-7.88-.26-11.84-.23-7.69.05-15.35.21-23-.11l-8.37-.38a1.53,1.53,0,0,0,.62.86c.93.91,1.88,1.79,2.85,2.65s1.94,1.73,2.94,2.56A1.53,1.53,0,0,0,118.71,259.08Z"/><path class="nublado-3" d="M118.88,260.6c62,.34,124.08.23,186.12.09a1.15,1.15,0,0,0-.53-.72c-.57-.52-1.15-1-1.75-1.5s-1.48-1.23-2.24-1.82a8.79,8.79,0,0,0-1.63-1.16,28.37,28.37,0,0,0-5.45-.26c-6.8,0-13.62-.3-20.42-.2-3.94.06-7.87.26-11.81.32-5.33.09-10.68,0-16-.06q-17.79,0-35.59,0-16.37,0-32.73,0c-5.67,0-11.33.06-17,0-5,0-10-.28-15-.25-7.69.05-15.37.23-23.06-.06-2.75-.1-5.5-.23-8.24-.34a1.06,1.06,0,0,0,.39.77c.67.81,1.36,1.61,2.07,2.38C116.41,258.28,118,260.59,118.88,260.6Z"/><path class="nublado-3" d="M120.82,260.63q93.08-.12,186.16,0c.58,0-.49-.82-.41-.76-.44-.35-1.32-1.11-1.93-1.11-9.66-.09-19.32-.13-29-.05-21.39.16-42.78,0-64.17,0-30.87,0-61.74.15-92.6-.08-.54,0,.28.76.27.76C119.48,259.75,120.3,260.63,120.82,260.63Z"/><path class="nublado-3" d="M118.61,258.61c31,.29,62,.14,93.06.14s62.08,0,93.12,0a1,1,0,0,0-.58-.64c-.6-.44-1.22-.86-1.84-1.27s-1.55-1-2.34-1.51a8.76,8.76,0,0,0-1.69-.94,36.83,36.83,0,0,0-5.56-.21c-6.82,0-13.66-.26-20.48-.17-3.9.05-7.8.23-11.71.29-5.33.08-10.69,0-16-.06q-17.81,0-35.61,0-16.36,0-32.72,0c-5.66,0-11.32.06-17,0-5,0-10.06-.26-15.1-.23-7.69.05-15.37.2-23.06-.08-2.8-.09-5.6-.21-8.4-.32a1,1,0,0,0,.47.69c.75.69,1.52,1.36,2.3,2C116.08,256.85,117.64,258.6,118.61,258.61Z"/><path class="nublado-3" d="M119.35,261.79c31,.14,62,.08,93,.08s62.1.17,93.14,0a1.44,1.44,0,0,0-.58-.82c-.89-.86-1.79-1.7-2.71-2.52s-2.39-2.63-3.67-2.93c-2.59-.59-5.63-.23-8.25-.26-6.74-.07-13.48-.29-20.21-.1-21.4.6-42.84.14-64.25.14q-16.28,0-32.54,0c-5.57,0-11.18.21-16.74,0-3.94-.13-7.83-.26-11.77-.24-7.69.05-15.37.24-23.05-.06l-8.23-.36a1.36,1.36,0,0,0,.44.88c.73,1,1.48,1.89,2.26,2.81C116.59,258.92,118.44,261.79,119.35,261.79Z"/><path class="nublado-3" d="M120.05,259.63c31-.34,61.92-.09,92.88-.09s62.14-.07,93.21,0c.51,0-.33-.68-.29-.65a3.1,3.1,0,0,0-1.54-.8c-31.05-.2-62.1,0-93.15,0-20.38,0-40.77-.05-61.16,0-10.45,0-20.89,0-31.34.14C118.2,258.19,119.58,259.63,120.05,259.63Z"/><path class="nublado-3" d="M119.09,260.26c31,.19,62,.1,93.06.1,20.44,0,40.88.09,61.32,0,10.61-.05,21.23.12,31.85,0a2,2,0,0,0-.77-.91q-1.68-1.44-3.4-2.82c-1.09-.89-3-3-4.51-3.3-2.66-.55-5.65-.23-8.34-.27-6.75-.08-13.5-.3-20.24-.1-21.39.64-42.83.15-64.22.16q-16.28,0-32.54.05c-5.57,0-11.16.19-16.72,0-4-.15-7.86-.27-11.82-.24-7.68,0-15.34.22-23-.11-2.78-.12-5.56-.26-8.33-.39a1.84,1.84,0,0,0,.64,1c1,1.07,2,2.12,3,3.15s2,2.06,3.07,3.06A1.87,1.87,0,0,0,119.09,260.26Z"/><path class="nublado-3" d="M118.93,259.67q46.47,0,92.94.05c20.44,0,40.88.11,61.32,0,10.57-.07,21.16-.08,31.73,0,.76,0-1-1.16-.83-1-.82-.59-2.13-1.83-3.17-2a67,67,0,0,0-8.26-.15c-6.74,0-13.49-.19-20.24-.07-21.39.37-42.8.08-64.19.09l-32.53,0c-9.53,0-19.06-.17-28.59-.14-10.48,0-20.94.05-31.42-.2-.68,0,.63,1.14.6,1.1.55.54,1.1,1.06,1.68,1.57A3.33,3.33,0,0,0,118.93,259.67Z"/><path class="nublado-3" d="M120.72,259.55c31-.48,62-.12,93-.12H307c.47,0-.19-.62-.18-.61a2.22,2.22,0,0,0-1.27-.71H151c-10.52,0-21-.07-31.54.19C119,258.31,120.27,259.56,120.72,259.55Z"/><path class="nublado-3" d="M118.78,260.89c31,.24,62.05.12,93.07.12s62.11.22,93.16,0a1.53,1.53,0,0,0-.63-.87c-.94-.92-1.91-1.82-2.89-2.7s-2.57-2.87-3.9-3.14c-2.64-.56-5.64-.23-8.31-.26-6.74-.08-13.49-.28-20.23-.1-21.39.59-42.83.13-64.23.14q-16.27,0-32.54.05c-5.57,0-11.16.19-16.73,0-3.94-.13-7.85-.26-11.79-.23-7.69.05-15.35.22-23-.08l-8.31-.36a1.53,1.53,0,0,0,.5.93c.8,1,1.62,2,2.47,3s1.68,1.95,2.55,2.9A1.53,1.53,0,0,0,118.78,260.89Z"/></g><g class="nublado-2"><path class="nublado-3" d="M335.28,261q46.5.08,93,0c20.44,0,40.87.08,61.31,0,10.59-.05,21.19-.1,31.78,0,.72,0-.88-1.08-.74-1-.73-.53-1.93-1.67-2.88-1.78a71.6,71.6,0,0,0-8.29-.13c-6.75,0-13.51-.15-20.26-.06-21.38.29-42.78.07-64.17.07l-32.51,0c-9.55,0-19.09-.13-28.63-.11-10.51,0-21,.07-31.52-.13-.65,0,.53,1,.51,1C333.32,259.41,334.59,261,335.28,261Z"/><path class="nublado-3" d="M335.66,264c31-.25,62.08-.07,93.12-.07H522c.5,0-1-2.18-1.54-2.18H427.24c-31,0-62-.24-93,.08C333.72,261.88,335.16,264,335.66,264Z"/><path class="nublado-3" d="M333.63,259.08c31,.25,62,.13,93.06.13,20.43,0,40.87.1,61.31,0,10.61-.06,21.22.08,31.83,0a1.66,1.66,0,0,0-.73-.8c-.75-.57-1.5-1.13-2.26-1.67-1-.68-1.91-1.36-2.87-2a13.46,13.46,0,0,0-2.06-1.3c-2.81-.51-5.81-.27-8.65-.3-6.75-.08-13.51-.29-20.25-.09-21.38.61-42.82.13-64.21.14q-16.26,0-32.53.05c-5.56,0-11.15.18-16.72,0-4-.14-7.88-.26-11.84-.23-7.69.05-15.35.21-23-.11l-8.37-.38a1.53,1.53,0,0,0,.62.86c.93.91,1.88,1.79,2.85,2.65s1.94,1.73,2.94,2.56A1.53,1.53,0,0,0,333.63,259.08Z"/><path class="nublado-3" d="M333.8,260.6c31,.18,62,.1,93,.09s62.08.07,93.12,0a1.15,1.15,0,0,0-.53-.72c-.57-.52-1.15-1-1.75-1.5s-1.48-1.23-2.24-1.82a8.79,8.79,0,0,0-1.63-1.16,28.37,28.37,0,0,0-5.45-.26c-6.8,0-13.62-.3-20.42-.2-3.94.06-7.87.26-11.81.32-5.33.09-10.68,0-16-.06q-17.79,0-35.59,0-16.37,0-32.73,0c-5.67,0-11.33.06-17,0-5,0-10-.28-15-.25-7.69.05-15.37.23-23.06-.06-2.75-.1-5.5-.23-8.24-.34a1.06,1.06,0,0,0,.39.77c.67.81,1.36,1.61,2.07,2.38C331.33,258.28,332.92,260.59,333.8,260.6Z"/><path class="nublado-3" d="M335.74,260.63q93.08-.12,186.16,0c.58,0-.49-.82-.41-.76-.44-.35-1.32-1.11-1.93-1.11-9.66-.09-19.32-.13-29-.05-21.39.16-42.78,0-64.17,0-30.87,0-61.74.15-92.6-.08-.54,0,.28.76.27.76C334.4,259.75,335.22,260.63,335.74,260.63Z"/><path class="nublado-3" d="M333.53,258.61c31,.3,62,.14,93.06.14s62.08,0,93.12,0a1,1,0,0,0-.58-.64c-.6-.44-1.22-.86-1.84-1.27s-1.55-1-2.34-1.51a8.76,8.76,0,0,0-1.69-.94,36.83,36.83,0,0,0-5.56-.21c-6.82,0-13.66-.26-20.48-.17-3.9.05-7.8.23-11.71.29-5.33.08-10.69,0-16-.06q-17.81,0-35.61,0-16.36,0-32.72,0c-5.66,0-11.32.06-17,0-5,0-10.06-.26-15.1-.23-7.69.05-15.37.2-23.06-.08-2.8-.09-5.6-.21-8.4-.32a1,1,0,0,0,.47.69c.75.69,1.52,1.36,2.3,2C331,256.85,332.56,258.6,333.53,258.61Z"/><path class="nublado-3" d="M334.27,261.79c31,.15,62,.08,93,.08s62.1.17,93.14,0a1.44,1.44,0,0,0-.58-.82c-.89-.86-1.79-1.7-2.71-2.52s-2.39-2.63-3.67-2.93c-2.59-.59-5.63-.23-8.25-.26-6.74-.07-13.48-.29-20.21-.1-21.4.6-42.84.14-64.25.14q-16.27,0-32.54,0c-5.57,0-11.18.21-16.74,0-3.94-.13-7.83-.26-11.77-.24-7.69.05-15.37.24-23.05-.06l-8.23-.36a1.36,1.36,0,0,0,.44.88c.73,1,1.48,1.89,2.26,2.81C331.51,258.92,333.36,261.79,334.27,261.79Z"/><path class="nublado-3" d="M335,259.63c31-.33,61.92-.09,92.88-.09s62.14-.06,93.21,0c.51,0-.33-.68-.29-.65a3.1,3.1,0,0,0-1.54-.8c-31.05-.19-62.1,0-93.15,0-20.38,0-40.77-.05-61.16,0-10.45,0-20.89,0-31.34.14C333.12,258.19,334.5,259.63,335,259.63Z"/><path class="nublado-3" d="M334,260.26c31,.19,62,.1,93.06.1,20.44,0,40.88.09,61.32,0,10.61-.05,21.23.12,31.84,0a1.91,1.91,0,0,0-.76-.91q-1.68-1.44-3.4-2.82c-1.09-.89-3-3-4.51-3.3-2.66-.55-5.65-.23-8.34-.27-6.75-.08-13.5-.3-20.24-.1-21.39.64-42.83.15-64.22.16q-16.27,0-32.54.05c-5.57,0-11.16.19-16.72,0-3.95-.15-7.86-.27-11.82-.24-7.68,0-15.34.22-23-.11-2.78-.12-5.56-.26-8.33-.39a1.84,1.84,0,0,0,.64,1c1,1.07,2,2.12,3,3.15s2,2.06,3.07,3.06A1.87,1.87,0,0,0,334,260.26Z"/><path class="nublado-3" d="M333.85,259.67q46.47,0,92.94.05c20.44,0,40.88.11,61.32,0,10.57-.07,21.16-.08,31.73,0,.76,0-1-1.16-.83-1-.82-.59-2.13-1.82-3.18-2a66.79,66.79,0,0,0-8.25-.15c-6.74,0-13.49-.19-20.24-.07-21.39.37-42.8.08-64.19.09l-32.53,0c-9.53,0-19.06-.17-28.59-.14-10.48,0-20.94.05-31.42-.2-.68,0,.63,1.14.6,1.1.55.54,1.1,1.06,1.68,1.57A3.33,3.33,0,0,0,333.85,259.67Z"/><path class="nublado-3" d="M335.64,259.55c31-.48,62-.12,93-.12h93.24c.47,0-.19-.62-.18-.61a2.22,2.22,0,0,0-1.27-.71H365.89c-10.52,0-21-.07-31.54.19C333.89,258.31,335.19,259.56,335.64,259.55Z"/><path class="nublado-3" d="M333.7,260.89c31,.25,62.05.12,93.07.12,20.44,0,40.88.09,61.31,0,10.62-.05,21.23.09,31.85,0a1.53,1.53,0,0,0-.63-.87c-.94-.92-1.91-1.82-2.89-2.7s-2.57-2.87-3.9-3.14c-2.64-.56-5.64-.23-8.31-.26-6.74-.08-13.49-.28-20.23-.1-21.39.59-42.83.14-64.23.14q-16.28,0-32.54.05c-5.57,0-11.16.19-16.73,0-3.94-.13-7.85-.26-11.79-.23-7.69.05-15.35.22-23-.08l-8.31-.36a1.53,1.53,0,0,0,.5.93c.8,1,1.62,2,2.47,3s1.68,1.95,2.55,2.9A1.53,1.53,0,0,0,333.7,260.89Z"/></g></g></g></svg>