<svg xmlns="http://www.w3.org/2000/svg" xmlns:xlink="http://www.w3.org/1999/xlink" viewBox="0 0 498.96 362.04"><defs><style>.cls-1{fill:url(#Degradado_sin_nombre_298);}.cls-2{fill:url(#Degradado_sin_nombre_288);}.cls-3{fill:url(#Degradado_sin_nombre_288-2);}.cls-4{fill:url(#Degradado_sin_nombre_288-3);}.cls-5{fill:url(#Degradado_sin_nombre_288-4);}.cls-6{fill:url(#Degradado_sin_nombre_288-5);}.cls-7{fill:url(#Degradado_sin_nombre_288-6);}.cls-8{fill:url(#Degradado_sin_nombre_288-7);}.cls-9{fill:url(#Degradado_sin_nombre_288-8);}.cls-10{fill:url(#Degradado_sin_nombre_288-9);}</style><linearGradient id="Degradado_sin_nombre_298" x1="119.83" y1="-55.41" x2="373.5" y2="412.24" gradientUnits="userSpaceOnUse"><stop offset="0.02" stop-color="#fcf3c3"/><stop offset="0.05" stop-color="#fff9c5"/><stop offset="1" stop-color="#1d1d1b"/></linearGradient><linearGradient id="Degradado_sin_nombre_288" x1="101.18" y1="300.23" x2="118.73" y2="332.57" gradientUnits="userSpaceOnUse"><stop offset="0" stop-color="#0098d7"/><stop offset="0" stop-color="#fff9c5"/><stop offset="1" stop-color="#0090d7"/></linearGradient><linearGradient id="Degradado_sin_nombre_288-2" x1="291.98" y1="333.83" x2="309.53" y2="366.17" xlink:href="#Degradado_sin_nombre_288"/><linearGradient id="Degradado_sin_nombre_288-3" x1="343.1" y1="333.83" x2="360.65" y2="366.17" xlink:href="#Degradado_sin_nombre_288"/><linearGradient id="Degradado_sin_nombre_288-4" x1="219.54" y1="333.83" x2="237.09" y2="366.17" xlink:href="#Degradado_sin_nombre_288"/><linearGradient id="Degradado_sin_nombre_288-5" x1="179.31" y1="305.02" x2="196.85" y2="337.36" xlink:href="#Degradado_sin_nombre_288"/><linearGradient id="Degradado_sin_nombre_288-6" x1="255.54" y1="300.23" x2="273.09" y2="332.57" xlink:href="#Degradado_sin_nombre_288"/><linearGradient id="Degradado_sin_nombre_288-7" x1="312.87" y1="297.36" x2="330.41" y2="329.7" xlink:href="#Degradado_sin_nombre_288"/><linearGradient id="Degradado_sin_nombre_288-8" x1="360.84" y1="297.36" x2="378.39" y2="329.7" xlink:href="#Degradado_sin_nombre_288"/><linearGradient id="Degradado_sin_nombre_288-9" x1="139.7" y1="333.83" x2="157.25" y2="366.17" xlink:href="#Degradado_sin_nombre_288"/></defs><g id="Capa_2" data-name="Capa 2"><g id="Capa_6" data-name="Capa 6"><path class="cls-1" d="M438.66,91C427.83,39.31,373.85,0,308.88,0a154.36,154.36,0,0,0-48.6,7.74A154.36,154.36,0,0,0,211.68,0c-60.56,0-111.56,34.16-127,80.68C35.17,96.52,0,136.62,0,183.6c0,60.84,59,110.16,131.76,110.16A151.42,151.42,0,0,0,197.64,279a151.42,151.42,0,0,0,65.88,14.74,153.71,153.71,0,0,0,51.84-8.86,153.71,153.71,0,0,0,51.84,8.86C440,293.76,499,244.44,499,183.6,499,144.78,474.94,110.66,438.66,91Z"/><path class="cls-2" d="M112.15,301c-1.47-1.95,6.57,8.15,9,15.45,2.09,6.29-4.52,12-10.08,12s-11.95-5.64-10.08-12c3-10.28,13.92-22.14,10.3-11.94"/><path class="cls-3" d="M312,350c2.09,6.28-4.52,12-10.08,12s-11.95-5.65-10.08-12c3-10.28,13.92-22.15,10.3-11.94,0,.15,1-3.38.86-3.51C301.48,332.64,309.52,342.74,312,350Z"/><path class="cls-4" d="M363.07,350c2.09,6.28-4.52,12-10.08,12s-11.95-5.65-10.08-12c3-10.28,13.92-22.15,10.3-11.94,0,.15,1-3.38.86-3.51C352.6,332.64,360.64,342.74,363.07,350Z"/><path class="cls-5" d="M239.51,350c2.09,6.28-4.51,12-10.08,12s-12-5.65-10.08-12c3-10.28,13.93-22.15,10.3-11.94-.05.15,1-3.38.86-3.51C229,332.64,237.08,342.74,239.51,350Z"/><path class="cls-6" d="M190.27,305.77c-1.46-1.95,6.57,8.15,9,15.45,2.09,6.29-4.51,12-10.08,12s-11.95-5.64-10.08-12c3-10.28,13.93-22.14,10.31-11.94"/><path class="cls-7" d="M266.51,301c-1.47-1.95,6.57,8.15,9,15.45,2.09,6.29-4.51,12-10.08,12s-12-5.64-10.08-12c3-10.28,13.93-22.14,10.3-11.94"/><path class="cls-8" d="M323.84,298.11c-1.47-1.95,6.57,8.15,9,15.45,2.09,6.29-4.52,12-10.08,12s-11.95-5.64-10.08-12c3-10.28,13.92-22.14,10.3-11.94"/><path class="cls-9" d="M371.81,298.11c-1.46-1.95,6.57,8.15,9,15.45,2.09,6.29-4.51,12-10.08,12s-12-5.64-10.08-12c3-10.28,13.93-22.14,10.3-11.94"/><path class="cls-10" d="M159.67,350c2.09,6.28-4.52,12-10.08,12s-12-5.65-10.08-12c3-10.28,13.92-22.15,10.3-11.94-.05.15,1-3.38.86-3.51C149.2,332.64,157.24,342.74,159.67,350Z"/></g></g></svg>