<svg xmlns="http://www.w3.org/2000/svg" xmlns:xlink="http://www.w3.org/1999/xlink" viewBox="0 0 498.96 293.76"><defs><style>.cls-1{fill:url(#Degradado_sin_nombre_9);}</style><linearGradient id="Degradado_sin_nombre_9" x1="119.83" y1="-55.41" x2="373.5" y2="412.24" gradientUnits="userSpaceOnUse"><stop offset="0.27" stop-color="#fff9c5"/><stop offset="1" stop-color="#88bce7"/></linearGradient></defs><g id="Capa_2" data-name="Capa 2"><g id="Capa_10" data-name="Capa 10"><path class="cls-1" d="M438.66,91C427.83,39.31,373.85,0,308.88,0a154.36,154.36,0,0,0-48.6,7.74A154.36,154.36,0,0,0,211.68,0c-60.56,0-111.56,34.16-127,80.68C35.17,96.52,0,136.62,0,183.6c0,60.84,59,110.16,131.76,110.16A151.42,151.42,0,0,0,197.64,279a151.42,151.42,0,0,0,65.88,14.74,153.71,153.71,0,0,0,51.84-8.86,153.71,153.71,0,0,0,51.84,8.86C440,293.76,499,244.44,499,183.6,499,144.78,474.94,110.66,438.66,91Z"/></g></g></svg>