<svg xmlns="http://www.w3.org/2000/svg" xmlns:xlink="http://www.w3.org/1999/xlink" viewBox="0 0 510.93 337.9"><defs><style>.cls-1{fill:url(#Degradado_sin_nombre_198);}.cls-2{fill:url(#Degradado_sin_nombre_9);}</style><linearGradient id="Degradado_sin_nombre_198" x1="312.07" y1="-28.48" x2="471" y2="264.51" gradientUnits="userSpaceOnUse"><stop offset="0.27" stop-color="#fff9c5"/><stop offset="1" stop-color="#edd156"/></linearGradient><linearGradient id="Degradado_sin_nombre_9" x1="119.83" y1="-11.27" x2="373.5" y2="456.37" gradientUnits="userSpaceOnUse"><stop offset="0.27" stop-color="#fff9c5"/><stop offset="1" stop-color="#88bce7"/></linearGradient></defs><g id="Capa_2" data-name="Capa 2"><g id="Capa_9" data-name="Capa 9"><ellipse class="cls-1" cx="389.35" cy="113.98" rx="121.59" ry="113.98"/><path class="cls-2" d="M438.66,135.17c-10.83-51.72-64.81-91-129.78-91a154.36,154.36,0,0,0-48.6,7.73,154.36,154.36,0,0,0-48.6-7.73c-60.56,0-111.56,34.15-127,80.68C35.17,140.66,0,180.76,0,227.74,0,288.57,59,337.9,131.76,337.9a151.29,151.29,0,0,0,65.88-14.75,151.29,151.29,0,0,0,65.88,14.75A153.71,153.71,0,0,0,315.36,329a153.71,153.71,0,0,0,51.84,8.86C440,337.9,499,288.57,499,227.74,499,188.92,474.94,154.79,438.66,135.17Z"/></g></g></svg>