<svg xmlns="http://www.w3.org/2000/svg" xmlns:xlink="http://www.w3.org/1999/xlink" viewBox="0 0 535.4 408.27"><defs><style>.cls-1{fill:url(#Degradado_sin_nombre_201);}.cls-2{fill:url(#Degradado_sin_nombre_9);}.cls-3{fill:url(#Degradado_sin_nombre_288);}.cls-4{fill:url(#Degradado_sin_nombre_288-2);}.cls-5{fill:url(#Degradado_sin_nombre_288-3);}.cls-6{fill:url(#Degradado_sin_nombre_288-4);}.cls-7{fill:url(#Degradado_sin_nombre_288-5);}.cls-8{fill:url(#Degradado_sin_nombre_288-6);}.cls-9{fill:url(#Degradado_sin_nombre_288-7);}.cls-10{fill:url(#Degradado_sin_nombre_288-8);}.cls-11{fill:url(#Degradado_sin_nombre_288-9);}</style><linearGradient id="Degradado_sin_nombre_201" x1="156.27" y1="-55.41" x2="409.94" y2="412.24" gradientUnits="userSpaceOnUse"><stop offset="0.27" stop-color="#fff9c5"/><stop offset="1" stop-color="#1d1d1b"/></linearGradient><linearGradient id="Degradado_sin_nombre_9" x1="119.83" y1="-19.88" x2="373.5" y2="447.77" gradientUnits="userSpaceOnUse"><stop offset="0.27" stop-color="#fff9c5"/><stop offset="1" stop-color="#88bce7"/></linearGradient><linearGradient id="Degradado_sin_nombre_288" x1="95.65" y1="346.46" x2="113.19" y2="378.8" gradientUnits="userSpaceOnUse"><stop offset="0" stop-color="#0098d7"/><stop offset="0" stop-color="#fff9c5"/><stop offset="1" stop-color="#0090d7"/></linearGradient><linearGradient id="Degradado_sin_nombre_288-2" x1="286.44" y1="380.06" x2="303.99" y2="412.4" xlink:href="#Degradado_sin_nombre_288"/><linearGradient id="Degradado_sin_nombre_288-3" x1="337.56" y1="380.06" x2="355.11" y2="412.4" xlink:href="#Degradado_sin_nombre_288"/><linearGradient id="Degradado_sin_nombre_288-4" x1="214.01" y1="380.06" x2="231.55" y2="412.4" xlink:href="#Degradado_sin_nombre_288"/><linearGradient id="Degradado_sin_nombre_288-5" x1="173.77" y1="351.25" x2="191.31" y2="383.59" xlink:href="#Degradado_sin_nombre_288"/><linearGradient id="Degradado_sin_nombre_288-6" x1="250.01" y1="346.46" x2="267.55" y2="378.8" xlink:href="#Degradado_sin_nombre_288"/><linearGradient id="Degradado_sin_nombre_288-7" x1="307.33" y1="343.59" x2="324.88" y2="375.93" xlink:href="#Degradado_sin_nombre_288"/><linearGradient id="Degradado_sin_nombre_288-8" x1="355.31" y1="343.59" x2="372.85" y2="375.93" xlink:href="#Degradado_sin_nombre_288"/><linearGradient id="Degradado_sin_nombre_288-9" x1="134.16" y1="380.06" x2="151.71" y2="412.4" xlink:href="#Degradado_sin_nombre_288"/></defs><g id="Capa_2" data-name="Capa 2"><g id="Capa_5" data-name="Capa 5"><path class="cls-1" d="M475.09,91C464.27,39.31,410.28,0,345.32,0a154.32,154.32,0,0,0-48.6,7.74A154.36,154.36,0,0,0,248.12,0c-60.56,0-111.57,34.16-127,80.68-49.53,15.84-84.7,55.94-84.7,102.92,0,60.84,59,110.16,131.76,110.16A151.42,151.42,0,0,0,234.08,279,151.42,151.42,0,0,0,300,293.76a153.76,153.76,0,0,0,51.84-8.86,153.71,153.71,0,0,0,51.84,8.86c72.77,0,131.76-49.32,131.76-110.16C535.4,144.78,511.38,110.66,475.09,91Z"/><path class="cls-2" d="M438.66,126.56c-10.83-51.72-64.81-91-129.78-91a154.08,154.08,0,0,0-48.6,7.74,154.08,154.08,0,0,0-48.6-7.74c-60.56,0-111.56,34.15-127,80.68C35.17,132.05,0,172.15,0,219.13,0,280,59,329.29,131.76,329.29a151.42,151.42,0,0,0,65.88-14.74,151.42,151.42,0,0,0,65.88,14.74,153.71,153.71,0,0,0,51.84-8.86,153.71,153.71,0,0,0,51.84,8.86C440,329.29,499,280,499,219.13,499,180.31,474.94,146.18,438.66,126.56Z"/><path class="cls-3" d="M106.61,347.22c-1.46-2,6.57,8.15,9,15.45,2.09,6.29-4.51,12-10.08,12s-12-5.64-10.08-12c3-10.28,13.93-22.14,10.3-11.94"/><path class="cls-4" d="M306.41,396.27c2.09,6.28-4.51,12-10.08,12s-11.95-5.65-10.08-12c3-10.28,13.93-22.15,10.3-11.94-.05.15,1-3.38.86-3.51C296,378.87,304,389,306.41,396.27Z"/><path class="cls-5" d="M357.53,396.27c2.09,6.28-4.51,12-10.08,12s-11.95-5.65-10.08-12c3-10.28,13.93-22.15,10.3-11.94-.05.15,1-3.38.86-3.51C347.07,378.87,355.1,389,357.53,396.27Z"/><path class="cls-6" d="M234,396.27c2.09,6.28-4.51,12-10.08,12s-11.95-5.65-10.08-12c3-10.28,13.93-22.15,10.31-11.94-.06.15.95-3.38.85-3.51C223.51,378.87,231.54,389,234,396.27Z"/><path class="cls-7" d="M184.73,352c-1.46-1.95,6.58,8.15,9,15.45,2.1,6.29-4.51,12-10.08,12s-12-5.64-10.08-12c3-10.28,13.93-22.14,10.31-11.94"/><path class="cls-8" d="M261,347.22c-1.46-2,6.57,8.15,9,15.45,2.09,6.29-4.51,12-10.08,12s-11.95-5.64-10.08-12c3-10.28,13.93-22.14,10.31-11.94"/><path class="cls-9" d="M318.3,344.34c-1.47-1.95,6.57,8.15,9,15.45,2.09,6.29-4.51,12-10.08,12s-12-5.64-10.08-12c3-10.28,13.93-22.14,10.3-11.94"/><path class="cls-10" d="M366.27,344.34c-1.46-1.95,6.57,8.15,9,15.45,2.09,6.29-4.51,12-10.08,12s-11.95-5.64-10.08-12c3-10.28,13.93-22.14,10.31-11.94"/><path class="cls-11" d="M154.13,396.27c2.09,6.28-4.51,12-10.08,12s-12-5.65-10.08-12c3-10.28,13.93-22.15,10.3-11.94-.05.15,1-3.38.86-3.51C143.67,378.87,151.7,389,154.13,396.27Z"/></g></g></svg>