<svg class='tormenta' xmlns="http://www.w3.org/2000/svg" xmlns:xlink="http://www.w3.org/1999/xlink" viewBox="0 0 535.4 400.45"><defs><style>.tormenta-1{fill:url(#Degradado_sin_nombre_469);}.tormenta-2{fill:url(#Degradado_sin_nombre_469-2);}.tormenta-3{fill:url(#Degradado_sin_nombre_469-3);}.tormenta-4{fill:url(#Degradado_sin_nombre_469-4);}.tormenta-5{fill:url(#Degradado_sin_nombre_469-5);}.tormenta-6{fill:url(#Degradado_sin_nombre_201);}.tormenta-7{fill:url(#Degradado_sin_nombre_9);}</style><linearGradient id="Degradado_sin_nombre_469" x1="168.57" y1="305.72" x2="216.36" y2="393.83" gradientUnits="userSpaceOnUse"><stop offset="0" stop-color="#ffed00"/><stop offset="0" stop-color="#88bce7"/><stop offset="0.45" stop-color="#fff374"/></linearGradient><linearGradient id="Degradado_sin_nombre_469-2" x1="225.86" y1="310.04" x2="273.65" y2="398.15" xlink:href="#Degradado_sin_nombre_469"/><linearGradient id="Degradado_sin_nombre_469-3" x1="100.53" y1="297.08" x2="148.32" y2="385.19" xlink:href="#Degradado_sin_nombre_469"/><linearGradient id="Degradado_sin_nombre_469-4" x1="287.46" y1="305.72" x2="335.25" y2="393.83" xlink:href="#Degradado_sin_nombre_469"/><linearGradient id="Degradado_sin_nombre_469-5" x1="359.73" y1="305.72" x2="407.52" y2="393.83" xlink:href="#Degradado_sin_nombre_469"/><linearGradient id="Degradado_sin_nombre_201" x1="156.27" y1="-55.41" x2="409.94" y2="412.24" gradientUnits="userSpaceOnUse"><stop offset="0.27" stop-color="#fff9c5"/><stop offset="1" stop-color="#1d1d1b"/></linearGradient><linearGradient id="Degradado_sin_nombre_9" x1="119.83" y1="-19.88" x2="373.5" y2="447.77" gradientUnits="userSpaceOnUse"><stop offset="0.27" stop-color="#fff9c5"/><stop offset="1" stop-color="#88bce7"/></linearGradient></defs><g id="Capa_2" data-name="Capa 2"><g id="Capa_4" data-name="Capa 4"><polygon class="tormenta-1" points="192.64 308.5 210.55 308.5 193.63 346.2 210.55 346.2 177.13 396.13 186.26 357.27 173.83 356.88 192.64 308.5"/><polygon class="tormenta-2" points="249.93 312.82 267.84 312.82 250.91 350.52 267.84 350.52 234.42 400.45 243.55 361.59 231.12 361.2 249.93 312.82"/><polygon class="tormenta-3" points="124.6 299.87 142.51 299.87 125.58 337.56 142.51 337.56 109.09 387.49 118.22 348.63 105.79 348.24 124.6 299.87"/><polygon class="tormenta-4" points="311.53 308.5 329.44 308.5 312.52 346.2 329.44 346.2 296.03 396.13 305.16 357.27 292.73 356.88 311.53 308.5"/><polygon class="tormenta-5" points="383.8 308.5 401.71 308.5 384.79 346.2 401.71 346.2 368.29 396.13 377.42 357.27 364.99 356.88 383.8 308.5"/><path class="tormenta-6" d="M475.09,91C464.27,39.31,410.28,0,345.32,0a154.32,154.32,0,0,0-48.6,7.74A154.36,154.36,0,0,0,248.12,0c-60.56,0-111.57,34.16-127,80.68-49.53,15.84-84.7,55.94-84.7,102.92,0,60.84,59,110.16,131.76,110.16A151.42,151.42,0,0,0,234.08,279,151.42,151.42,0,0,0,300,293.76a153.76,153.76,0,0,0,51.84-8.86,153.71,153.71,0,0,0,51.84,8.86c72.77,0,131.76-49.32,131.76-110.16C535.4,144.78,511.38,110.66,475.09,91Z"/><path class="tormenta-7" d="M438.66,126.56c-10.83-51.72-64.81-91-129.78-91a154.08,154.08,0,0,0-48.6,7.74,154.08,154.08,0,0,0-48.6-7.74c-60.56,0-111.56,34.15-127,80.68C35.17,132.05,0,172.15,0,219.13,0,280,59,329.29,131.76,329.29a151.42,151.42,0,0,0,65.88-14.74,151.42,151.42,0,0,0,65.88,14.74,153.71,153.71,0,0,0,51.84-8.86,153.71,153.71,0,0,0,51.84,8.86C440,329.29,499,280,499,219.13,499,180.31,474.94,146.18,438.66,126.56Z"/></g></g></svg>